<?xml version="1.0" standalone="no"?><!DOCTYPE svg PUBLIC "-//W3C//DTD SVG 1.1//EN" "http://www.w3.org/Graphics/SVG/1.1/DTD/svg11.dtd"><svg t="1599028007764" class="icon" viewBox="0 0 1024 1024" version="1.1" xmlns="http://www.w3.org/2000/svg" p-id="12836" xmlns:xlink="http://www.w3.org/1999/xlink" width="32" height="32"><defs><style type="text/css"></style></defs><path d="M1000.874667 189.326222a44.885333 44.885333 0 0 0-6.343111-15.815111C957.980444 118.272 898.332444 85.333333 835.128889 85.333333H181.816889C118.755556 85.333333 59.107556 118.414222 22.414222 173.795556a43.690667 43.690667 0 0 0-7.168 25.031111C1.820444 229.888 0 262.115556 0 285.297778v489.045333c0 52.224 17.777778 100.551111 50.062222 135.793778C83.626667 946.830222 130.332444 967.111111 181.816889 967.111111H835.128889c105.927111 0 188.871111-84.736 188.871111-192.768V285.411556c0-35.100444-7.907556-67.896889-23.125333-96.085334z m-165.745778-17.692444c23.978667 0 47.246222 8.789333 66.161778 24.462222l-199.736889 204.828444-117.902222 120.547556a116.309333 116.309333 0 0 1-16.64 13.937778 106.097778 106.097778 0 0 1-134.428445-14.933334l-81.806222-83.740444L117.361778 195.128889a103.082667 103.082667 0 0 1 64.568889-23.324445H835.128889v-0.142222z m104.248889 602.737778c0 60.700444-44.856889 106.439111-104.248889 106.439111H181.816889c-57.258667 0-97.194667-43.747556-97.194667-106.467556V286.862222l205.937778 210.602667 81.92 84.707555 0.284444 0.284445a188.529778 188.529778 0 0 0 135.424 57.400889 186.652444 186.652444 0 0 0 110.876445-36.238222c8.874667-6.343111 17.493333-13.653333 25.372444-21.873778l117.646223-120.547556 177.294222-181.248c0 1.706667 0.142222 3.612444 0.142222 5.319111v489.073778h-0.142222z" p-id="12837"></path></svg>