<?xml version="1.0" standalone="no"?><!DOCTYPE svg PUBLIC "-//W3C//DTD SVG 1.1//EN" "http://www.w3.org/Graphics/SVG/1.1/DTD/svg11.dtd"><svg t="1596784693880" class="icon" viewBox="0 0 1024 1024" version="1.1" xmlns="http://www.w3.org/2000/svg" p-id="7730" xmlns:xlink="http://www.w3.org/1999/xlink" width="20" height="20"><defs><style type="text/css"></style></defs><path d="M932.5056 333.568l-114.3808-13.056-58.88-75.776 13.1584-117.248L640.512 62.464l-80.896 83.0976H463.7184L382.7712 62.464 250.88 127.488l13.1584 117.2992-58.88 75.6736-114.3296 13.056-33.0752 148.6336 97.7408 62.72 20.8896 93.5424-61.6448 100.096 92.16 118.4256 108.0832-39.0144 86.0672 42.496 37.6832 111.104h145.92l37.6832-111.104 86.016-42.496 108.1344 39.0144 92.16-118.4256-61.6448-100.096 20.8384-93.5424 97.7408-62.72-33.0752-148.6336z m90.7776 172.3904l-110.08 70.656-11.7248 52.736 69.376 112.64-136.8064 175.7184-122.5216-44.1856-47.5136 23.4496-42.7008 125.7984H402.0736l-42.7008-125.7984-47.5136-23.4496-122.5728 44.1856-136.7552-175.7184 69.3248-112.64-11.776-52.736L0 506.0096l48.7936-219.136 129.1776-14.6944 32.8704-42.24-14.848-132.352L393.5232 0l91.7504 94.3104h52.736L629.76 0l197.5296 97.536-14.848 132.2496 32.9216 42.3424 129.1776 14.7456 48.7424 219.136zM511.5904 361.3696c-79.872 0-145.152 66.9184-145.152 150.016 0 83.2512 65.2288 150.1184 145.152 150.1184 79.872 0 145.1008-66.8672 145.1008-150.1184 0-83.0976-65.2288-150.016-145.1008-150.016z m0-51.2c108.4416 0 196.3008 90.112 196.3008 201.216 0 111.2576-87.8592 201.3184-196.3008 201.3184-108.4928 0-196.352-90.112-196.352-201.3184 0-111.104 87.9104-201.216 196.352-201.216z"  p-id="7731"></path></svg>
