<?xml version="1.0" standalone="no"?><!DOCTYPE svg PUBLIC "-//W3C//DTD SVG 1.1//EN" "http://www.w3.org/Graphics/SVG/1.1/DTD/svg11.dtd"><svg t="1596785487260" class="icon" viewBox="0 0 1092 1024" version="1.1" xmlns="http://www.w3.org/2000/svg" p-id="10299" xmlns:xlink="http://www.w3.org/1999/xlink" width="21.328125" height="20"><defs><style type="text/css"></style></defs><path d="M395.946667 27.306667H136.533333C81.92 27.306667 34.133333 75.093333 34.133333 129.706667v245.76C34.133333 436.906667 81.92 477.866667 136.533333 477.866667h259.413334c54.613333 0 102.4-47.786667 102.4-102.4V129.706667c0-54.613333-47.786667-102.4-102.4-102.4z m34.133333 348.16c0 20.48-13.653333 34.133333-34.133333 34.133333H136.533333c-20.48 0-34.133333-13.653333-34.133333-34.133333V129.706667c0-20.48 13.653333-34.133333 34.133333-34.133334h259.413334c20.48 0 34.133333 13.653333 34.133333 34.133334v245.76zM395.946667 546.133333H136.533333C81.92 546.133333 34.133333 593.92 34.133333 648.533333v245.76c0 54.613333 47.786667 102.4 102.4 102.4h259.413334c54.613333 0 102.4-47.786667 102.4-102.4V648.533333c0-54.613333-47.786667-102.4-102.4-102.4z m34.133333 348.16c0 20.48-13.653333 34.133333-34.133333 34.133334H136.533333c-20.48 0-34.133333-13.653333-34.133333-34.133334V648.533333c0-20.48 13.653333-34.133333 34.133333-34.133333h259.413334c20.48 0 34.133333 13.653333 34.133333 34.133333v245.76zM935.253333 546.133333H675.84c-61.44 0-102.4 47.786667-102.4 102.4v245.76c0 54.613333 47.786667 102.4 102.4 102.4h259.413333c54.613333 0 102.4-47.786667 102.4-102.4V648.533333c0-54.613333-47.786667-102.4-102.4-102.4z m34.133334 348.16c0 20.48-13.653333 34.133333-34.133334 34.133334H675.84c-20.48 0-34.133333-13.653333-34.133333-34.133334V648.533333c0-20.48 13.653333-34.133333 34.133333-34.133333h259.413333c20.48 0 34.133333 13.653333 34.133334 34.133333v245.76zM771.413333 518.826667c27.306667 0 54.613333-6.826667 75.093334-27.306667l143.36-143.36c20.48-20.48 27.306667-47.786667 27.306666-75.093333 0-27.306667-13.653333-54.613333-27.306666-75.093334l-136.533334-136.533333c-40.96-40.96-102.4-40.96-143.36 0L559.786667 204.8c-20.48 20.48-27.306667 47.786667-27.306667 75.093333 0 27.306667 13.653333 54.613333 27.306667 75.093334l136.533333 136.533333c20.48 20.48 47.786667 27.306667 75.093333 27.306667zM600.746667 279.893333c0-6.826667 6.826667-20.48 6.826666-27.306666L750.933333 109.226667c6.826667-6.826667 13.653333-6.826667 27.306667-6.826667s20.48 0 27.306667 6.826667l136.533333 136.533333c6.826667 6.826667 6.826667 13.653333 6.826667 27.306667 0 6.826667-6.826667 20.48-6.826667 27.306666l-143.36 143.36c-13.653333 13.653333-34.133333 13.653333-47.786667 0l-136.533333-136.533333c-13.653333-6.826667-13.653333-20.48-13.653333-27.306667z" p-id="10300"></path></svg>
