<?xml version="1.0" standalone="no"?><!DOCTYPE svg PUBLIC "-//W3C//DTD SVG 1.1//EN" "http://www.w3.org/Graphics/SVG/1.1/DTD/svg11.dtd"><svg t="1596784702063" class="icon" viewBox="0 0 1026 1024" version="1.1" xmlns="http://www.w3.org/2000/svg" p-id="7870" xmlns:xlink="http://www.w3.org/1999/xlink" width="20.0390625" height="20"><defs><style type="text/css"></style></defs><path d="M293.827835 107.337107H83.95081V848.103065h314.215889V365.58579c0-22.786648 18.389225-40.376342 41.175874-40.376342h303.821979V107.337107h-209.877025c0.399766 2.398595 0.399766 5.596721 0.399766 8.794847v11.992973h71.957837c33.580324 0 55.567441 19.988288 64.762053 45.573297 3.198126 8.794847 5.196955 18.389225 5.196955 28.383369 0 9.194613-1.998829 19.188757-5.196955 27.983603-9.194613 25.984775-31.181729 45.573297-64.762053 45.573297H222.269764c-34.379856 0-55.967207-19.988288-64.762054-45.573297-3.997658-8.794847-5.196955-18.788991-5.196955-27.983603 0-9.994144 1.599063-19.588522 5.196955-28.383369l0.399766-1.998829c9.194613-24.785477 30.781964-43.574468 64.362288-43.574468h71.158305v-11.992973c0.399766-3.198126 0.399766-6.396252 0.399766-8.794847zM398.166699 928.056217h-355.791528C19.988288 928.056217 1.599063 910.466524 1.599063 887.679875V66.560999C1.998829 44.573882 19.988288 26.984189 42.375171 26.984189h294.627367c44.374-35.978919 108.736287-35.978919 153.110287 0h294.627366c22.786648 0 41.575639 17.989459 41.57564 39.57681V353.992582l187.889908 182.692954c7.595549 7.195784 11.593207 17.589694 11.593207 27.983603V982.824126c0 22.786648-17.989459 40.776108-40.776108 40.776108H439.742338c-22.786648 0-41.175874-17.989459-41.175873-40.776108V928.056217h-0.399766z m544.880734-340.200664h-163.903962c-13.592036 0-24.385711-10.39391-24.385712-23.985945v-158.707008h-274.239313v538.084716h462.528987v-355.391763z m-41.575639-47.971891L803.529182 445.938708v93.545188h97.942612v0.399766zM319.013078 175.697053H222.269764c-9.194613 0-15.191099 5.596721-18.389225 12.392738l-0.799532 0.799532c-1.199297 3.597892-1.599063 8.395081-1.599063 12.792504 0 3.997658 0.399766 8.395081 1.599063 12.392739 3.198126 7.195784 9.194613 13.19227 19.188757 13.19227h382.9756c9.194613 0 15.99063-5.596721 18.389225-13.19227 1.199297-4.397423 1.998829-8.395081 1.998829-12.392739 0-4.397423-0.799532-9.194613-1.998829-12.792504-2.398595-7.195784-9.194613-13.19227-18.389225-13.19227h-96.343549c-13.592036 0-24.785477-10.793676-24.785477-24.385712v-35.579153c0-19.188757-7.995315-35.579153-20.388054-48.371657h-0.399766c-27.583838-26.784306-71.957837-26.784306-99.541674 0-12.392739 12.392739-20.78782 29.182901-20.78782 48.371657v35.579153c0 13.592036-10.793676 24.385711-23.985946 24.385712z" p-id="7871"></path></svg>