<?xml version="1.0" standalone="no"?><!DOCTYPE svg PUBLIC "-//W3C//DTD SVG 1.1//EN" "http://www.w3.org/Graphics/SVG/1.1/DTD/svg11.dtd"><svg t="1599018137179" class="icon" viewBox="0 0 1024 1024" version="1.1" xmlns="http://www.w3.org/2000/svg" p-id="4468" xmlns:xlink="http://www.w3.org/1999/xlink" width="32" height="32"><defs><style type="text/css"></style></defs><path d="M512 979.2c-248 0-449.6-201.6-449.6-449.6C62.4 281.6 264 80 512 80c248 0 449.6 201.6 449.6 449.6 0 248-201.6 449.6-449.6 449.6z m0-859.2C286.4 120 102.4 304 102.4 529.6c0 225.6 184 409.6 409.6 409.6 225.6 0 409.6-184 409.6-409.6C921.6 304 737.6 120 512 120z" fill="#333333" p-id="4469"></path><path d="M508.8 745.6L299.2 536l209.6-209.6 209.6 209.6-209.6 209.6z m-152-209.6l152 152 152-152-152-152-152 152z" fill="#333333" p-id="4470"></path></svg>